<svg width="25" height="25" viewBox="0 0 25 25" fill="none" xmlns="http://www.w3.org/2000/svg">
<path d="M4.40674 12.5C4.40674 15.3405 6.71763 17.6514 9.55811 17.6514C12.3986 17.6514 14.7095 15.3405 14.7095 12.5C14.7095 9.65952 12.3986 7.34863 9.55811 7.34863C6.71763 7.34863 4.40674 9.65952 4.40674 12.5ZM11.7615 12.5C11.7615 13.7149 10.773 14.7034 9.55811 14.7034C8.34316 14.7034 7.35474 13.7149 7.35474 12.5C7.35474 11.2851 8.34316 10.2966 9.55811 10.2966C10.773 10.2966 11.7615 11.2851 11.7615 12.5Z" fill="#333333"/>
<path d="M9.55811 13.2385C9.96598 13.2385 10.2966 12.9079 10.2966 12.5C10.2966 12.0921 9.96598 11.7615 9.55811 11.7615C9.15023 11.7615 8.81958 12.0921 8.81958 12.5C8.81958 12.9079 9.15023 13.2385 9.55811 13.2385Z" fill="#333333"/>
<path d="M22.2717 2.94189H2.72827C1.22388 2.94189 0 4.16577 0 5.67017V19.3298C0 20.8342 1.22388 22.0581 2.72827 22.0581H22.2717C23.7761 22.0581 25 20.8342 25 19.3298V5.67017C25 4.16577 23.7761 2.94189 22.2717 2.94189ZM21.3257 16.1743C20.9151 16.1743 20.611 15.8387 20.5933 15.4419C20.5755 15.0463 20.9426 14.7095 21.3257 14.7095C21.7363 14.7095 22.0403 15.0451 22.0581 15.4419C22.0758 15.8375 21.7088 16.1743 21.3257 16.1743ZM22.0581 18.3838C22.0758 18.7793 21.7088 19.1162 21.3257 19.1162C20.9151 19.1162 20.611 18.7806 20.5933 18.3838C20.5755 17.9882 20.9426 17.6514 21.3257 17.6514C21.7363 17.6514 22.0403 17.987 22.0581 18.3838ZM21.3257 13.2324H18.3838C17.9793 13.2324 17.6514 12.9045 17.6514 12.5C17.6514 12.0955 17.9793 11.7676 18.3838 11.7676H21.3257C21.7302 11.7676 22.0581 12.0955 22.0581 12.5C22.0581 12.9045 21.7302 13.2324 21.3257 13.2324ZM18.3838 16.1743C17.9732 16.1743 17.6691 15.8387 17.6514 15.4419C17.6336 15.0463 18.0007 14.7095 18.3838 14.7095C18.7944 14.7095 19.0984 15.0451 19.1162 15.4419C19.1339 15.8375 18.7669 16.1743 18.3838 16.1743ZM19.1162 18.3838C19.1339 18.7793 18.7669 19.1162 18.3838 19.1162C17.9732 19.1162 17.6691 18.7806 17.6514 18.3838C17.6336 17.9882 18.0007 17.6514 18.3838 17.6514C18.7944 17.6514 19.0984 17.987 19.1162 18.3838ZM21.3257 10.2905H18.3838C17.9793 10.2905 17.6514 9.9626 17.6514 9.55811C17.6514 9.15361 17.9793 8.82568 18.3838 8.82568H21.3257C21.7302 8.82568 22.0581 9.15361 22.0581 9.55811C22.0581 9.9626 21.7302 10.2905 21.3257 10.2905ZM21.3257 7.34863H18.3838C17.9793 7.34863 17.6514 7.0207 17.6514 6.61621C17.6514 6.21172 17.9793 5.88379 18.3838 5.88379H21.3257C21.7302 5.88379 22.0581 6.21172 22.0581 6.61621C22.0581 7.0207 21.7302 7.34863 21.3257 7.34863ZM16.1743 12.5C16.1743 16.1482 13.2063 19.1162 9.55811 19.1162C5.90991 19.1162 2.94189 16.1482 2.94189 12.5C2.94189 8.85181 5.90991 5.88379 9.55811 5.88379C13.2063 5.88379 16.1743 8.85181 16.1743 12.5Z" fill="#333333"/>
</svg>
