<svg width="23" height="27" viewBox="0 0 23 27" fill="none" xmlns="http://www.w3.org/2000/svg">
<path d="M9.11438 7.46018L14.8644 13.2102L16.855 11.6186L10.7024 5.46605L9.11438 7.46018Z" fill="#333333"/>
<path d="M3.97778 13.9102L8.42593 18.3584L13.6572 14.1755L8.15126 8.66951L3.97778 13.9102Z" fill="#333333"/>
<path d="M18.4704 11.0615C19.2871 10.7837 20.0364 10.3218 20.6578 9.7004C22.8739 7.48423 22.8739 3.87828 20.6578 1.66212C18.4416 -0.55404 14.8357 -0.55404 12.6195 1.66212C11.9981 2.28351 11.5362 3.03281 11.2584 3.84945L18.4704 11.0615Z" fill="#333333"/>
<path fill-rule="evenodd" clip-rule="evenodd" d="M0.697036 18.0313L3.01481 15.1208L7.2188 19.3248L4.55398 21.4556C4.08076 22.0176 3.37194 22.3747 2.57971 22.3747C1.15498 22.3747 0 21.2197 0 19.795C0 19.2674 0.158368 18.7768 0.430159 18.3682L0.429398 18.3674L0.437368 18.3574C0.515146 18.2417 0.602045 18.1327 0.697036 18.0313Z" fill="#333333"/>
</svg>
