<svg width="25" height="25" viewBox="0 0 25 25" fill="none" xmlns="http://www.w3.org/2000/svg">
<g clip-path="url(#clip0)">
<path d="M24.834 1.87138L23.1295 0.166862C22.9486 -0.0151489 22.6684 -0.0523286 22.4459 0.0752971L18.4687 2.34801C18.2917 2.449 18.1824 2.63767 18.1824 2.84125V3.74235L14.3755 7.54923C13.5354 7.07096 12.6987 6.81959 11.9324 6.81848C9.25692 6.81848 8.59551 8.46307 8.11281 9.6638C7.66394 10.7807 7.37705 11.3633 6.25074 11.3639C2.27905 11.3639 0.000854492 13.4346 0.000854492 17.0456C0.000854492 20.837 4.16393 25 7.95525 25C11.5663 25 13.637 22.7218 13.637 18.7502C13.637 17.6238 14.2196 17.3369 15.336 16.8881C16.5367 16.4053 18.1813 15.744 18.1813 13.0685C18.1813 12.3033 17.9305 11.4661 17.4517 10.6254L21.2585 6.81853H22.1596C22.3633 6.81853 22.5519 6.70923 22.6529 6.53222L24.9256 2.555C25.0526 2.33245 25.0154 2.05227 24.834 1.87138ZM7.7888 20.2882C7.67784 20.3991 7.53243 20.4546 7.38706 20.4546C7.2417 20.4546 7.09634 20.3991 6.98533 20.2882L4.71262 18.0155C4.49066 17.7935 4.49066 17.4339 4.71262 17.212C4.93458 16.9901 5.29413 16.9901 5.51603 17.212L7.78874 19.4847C8.01076 19.7067 8.01076 20.0662 7.7888 20.2882ZM10.7961 16.4774C9.54301 16.4774 8.52339 15.4578 8.52339 14.2047C8.52339 12.9516 9.54301 11.932 10.7961 11.932C12.0492 11.932 13.0688 12.9516 13.0688 14.2047C13.0688 15.4578 12.0492 16.4774 10.7961 16.4774Z" fill="#333333"/>
</g>
<defs>
<clipPath id="clip0">
<rect width="25" height="25" fill="white"/>
</clipPath>
</defs>
</svg>
