<svg width="25" height="25" viewBox="0 0 25 25" fill="none" xmlns="http://www.w3.org/2000/svg">
<path d="M21.101 11.0021C18.2688 10.6458 17.1136 9.4771 17.1136 6.96772V6.77085C17.1136 3.0375 13.9834 0 10.1375 0H7.49587C3.65002 0 0.520874 3.0375 0.520874 6.77085V15.625H24.4792V14.7219C24.4792 12.8427 23.0271 11.2427 21.101 11.0021Z" fill="#333333"/>
<path d="M21.3542 20.8334C21.3542 21.4084 20.8875 21.875 20.3125 21.875C19.7375 21.875 19.2709 21.4084 19.2709 20.8334V17.7084H18.2292V20.8334C18.2292 21.4084 17.7626 21.875 17.1876 21.875C16.6126 21.875 16.1459 21.4084 16.1459 20.8334V17.7084H15.1043V20.8334C15.1043 21.4084 14.6376 21.875 14.0626 21.875C13.4876 21.875 13.021 21.4084 13.021 20.8334V17.7084H11.9793V20.8334C11.9793 21.4084 11.5127 21.875 10.9377 21.875C10.3627 21.875 9.89602 21.4084 9.89602 20.8334V17.7084H8.85437V20.8334C8.85437 21.4084 8.38772 21.875 7.81272 21.875C7.23772 21.875 6.77107 21.4084 6.77107 20.8334V17.7084H5.72942V20.8334C5.72917 21.4084 5.26252 21.875 4.68752 21.875C4.11252 21.875 3.64587 21.4084 3.64587 20.8334V17.7084H0.520874V25H24.4792V17.7084H21.3542V20.8334H21.3542Z" fill="#333333"/>
</svg>
