<svg width="25" height="25" viewBox="0 0 25 25" fill="none" xmlns="http://www.w3.org/2000/svg">
<g clip-path="url(#clip0)">
<path d="M24.6341 6.26129V6.26134L18.7423 0.369578C18.2492 -0.105431 17.4687 -0.105431 16.9757 0.369578C16.4878 0.855964 16.4866 1.64573 16.973 2.13363C16.9739 2.1345 16.9747 2.13538 16.9757 2.13631L17.1298 2.29046C16.7294 5.12109 15.4361 7.75009 13.4381 9.79476V9.79891H13.4339L13.1423 9.50306C12.6544 9.01521 11.8635 9.01521 11.3756 9.50306C10.8878 9.99091 10.8878 10.7819 11.3756 11.2697L11.6715 11.5656L10.7881 12.449L10.4922 12.1531C10.2603 11.9182 9.9431 11.7874 9.61307 11.7906C8.92555 11.7855 8.36407 12.3387 8.35889 13.0262C8.35889 13.0296 8.35884 13.0331 8.35884 13.0365C8.35626 13.3685 8.48858 13.6873 8.7255 13.9199L9.01716 14.2157L8.13379 15.0991L7.84214 14.8033C7.34491 14.3345 6.56848 14.3345 6.07125 14.8033C5.83653 15.039 5.70469 15.3581 5.7046 15.6908C5.70479 16.021 5.83678 16.3375 6.07125 16.5699L6.36711 16.8658L1.60452 21.6116L0.566997 21.9575C0.294384 22.051 0.088521 22.2773 0.0211369 22.5575C-0.0427803 22.8392 0.0403755 23.134 0.241991 23.3409L1.65037 24.7451C1.80476 24.9003 2.01478 24.9873 2.23373 24.9867C2.2995 24.9859 2.36508 24.979 2.42958 24.9659C2.71098 24.8982 2.93775 24.6903 3.02959 24.4158L3.37125 23.3867L6.95882 19.8075C6.62527 22.0822 8.19898 24.1967 10.4737 24.5302C11.4878 24.6789 12.521 24.4483 13.3756 23.8825H13.3797L13.4381 23.9409C13.6656 24.1671 13.9715 24.2969 14.2923 24.3034H14.3381C14.6649 24.3023 14.9779 24.1719 15.209 23.9409V23.9367C15.6882 23.4453 15.6882 22.6615 15.209 22.17L16.0881 21.2867H16.0923C16.3178 21.5183 16.6274 21.649 16.9507 21.6492C16.9614 21.6534 16.9733 21.6534 16.984 21.6492C17.3125 21.6509 17.6279 21.5202 17.859 21.2867C18.3465 20.7987 18.3465 20.008 17.859 19.52L18.7424 18.6366C18.9691 18.8666 19.2779 18.997 19.6008 18.9991H19.6383C19.9653 18.9996 20.279 18.8691 20.5091 18.6366C20.9966 18.1486 20.9966 17.3579 20.5091 16.8699L20.4508 16.8115C20.9004 16.1288 21.1395 15.329 21.1383 14.5115C21.1447 13.406 20.7062 12.3444 19.9216 11.5656C19.0532 10.6935 17.8438 10.2497 16.6174 10.3531C18.4144 9.03767 20.5083 8.18604 22.7134 7.87387L22.8675 8.02803C23.3554 8.51588 24.1464 8.51588 24.6342 8.02803C25.1221 7.54018 25.122 6.74915 24.6341 6.26129ZM2.23783 24.1533L0.833652 22.7492L1.71282 22.4533L1.82532 22.5658L2.13783 22.8783L2.37948 23.12L2.47948 23.22L2.52949 23.27L2.53364 23.2741L2.23783 24.1533ZM16.609 10.3573H16.6131L16.608 10.3581L16.609 10.3573ZM11.3755 13.0365L11.963 13.6281L11.6672 13.3323L11.6338 13.2989L11.3755 13.0406V13.0365H11.3755ZM9.90467 21.5824C9.49397 21.163 9.33552 20.5577 9.48802 19.9908L10.9297 21.4324L10.9505 21.4533L11.0797 21.5824L11.163 21.6658L11.4797 21.9824L11.4964 21.9991C10.9295 22.1522 10.3239 21.9936 9.90467 21.5824ZM14.6173 23.3492C14.5374 23.4304 14.427 23.4743 14.3131 23.47C14.2055 23.4732 14.1019 23.429 14.0298 23.3491L13.7464 23.07L13.7339 23.0533L12.5214 21.8408L9.64632 18.9699L8.4463 17.7699L7.25042 16.574L7.23793 16.5615L6.66291 15.9823C6.50065 15.8262 6.49572 15.5681 6.65183 15.4059C6.65544 15.4021 6.65915 15.3984 6.66291 15.3948C6.73918 15.3159 6.8448 15.2721 6.95457 15.274C7.06473 15.2722 7.17113 15.3141 7.25042 15.3906L7.83794 15.9823H7.84209C7.85097 15.9954 7.8623 16.0067 7.87544 16.0156L9.01711 17.1615V17.1657H9.02126L9.05041 17.1948L9.05456 17.199L9.07121 17.2156L9.60872 17.7531L9.61287 17.7573L9.90453 18.0489L9.91703 18.0614L10.0712 18.2156L10.1337 18.2781L10.1753 18.3197L10.1795 18.3239L11.6337 19.7781L12.2212 20.3656L12.2628 20.4072L13.1462 21.2906L13.1587 21.3031L13.1628 21.3072L13.1795 21.3239L13.1836 21.328L13.1961 21.3405L13.2336 21.378L13.6462 21.7906L14.0087 22.1531L14.0795 22.2239L14.1212 22.2656L14.3212 22.4656L14.342 22.4822L14.617 22.7572C14.7798 22.9212 14.7799 23.1855 14.6173 23.3492ZM11.0838 18.0491V18.0449L11.963 17.1616L14.3214 19.5199L13.4422 20.4033H13.4381L12.3172 19.2824L12.2256 19.1908L11.0838 18.0491ZM17.2673 20.6991C17.1873 20.7771 17.079 20.8192 16.9673 20.8158C16.8595 20.818 16.7556 20.7758 16.6798 20.6991L16.3839 20.4033L15.2089 19.2282L12.2589 16.2782L11.0838 15.1032L11.0797 15.099L9.92133 13.9406C9.91718 13.9323 9.90882 13.9281 9.90467 13.9198H9.90053L9.84217 13.8656L9.31301 13.3323C9.23459 13.2539 9.19104 13.1473 9.19216 13.0364C9.19026 12.9267 9.23406 12.821 9.31301 12.7448C9.39055 12.6626 9.50018 12.6184 9.61302 12.6239C9.7224 12.624 9.82733 12.6674 9.90467 12.7448L10.4755 13.3156L11.6714 14.5115L11.6756 14.5157L12.8506 15.6907L15.7964 18.6366L16.9756 19.8158L17.2673 20.1074C17.4298 20.2712 17.4298 20.5354 17.2673 20.6991ZM13.7339 15.3948L14.6173 14.5157L16.9757 16.8699L16.0923 17.7532L13.7339 15.3948ZM19.9215 17.4574C20.09 17.6128 20.111 17.864 19.9556 18.0325C19.9481 18.0407 19.9401 18.0486 19.9215 18.0449C19.8426 18.1251 19.734 18.1688 19.6215 18.1658C19.5129 18.1622 19.4092 18.1192 19.3299 18.0449L19.0382 17.7533L17.859 16.5741L14.9048 13.624L14.8548 13.574C14.8526 13.5741 14.8507 13.5723 14.8507 13.57C14.8507 13.57 14.8507 13.5699 14.8507 13.5699L13.7548 12.4699L13.7173 12.4365L13.7048 12.424L12.5714 11.2865C12.5631 11.2823 12.5589 11.274 12.5548 11.2698L12.5506 11.2657L11.9673 10.6823C11.8048 10.5186 11.8048 10.2544 11.9673 10.0907C12.0454 10.0095 12.1546 9.96547 12.2673 9.96981C12.3744 9.97499 12.4762 10.0178 12.5548 10.0907L13.1173 10.6532L13.1631 10.699L14.2882 11.824L14.2923 11.8282L14.2965 11.8323L14.3006 11.8365L14.309 11.8449L14.3215 11.8574L14.3298 11.8657L15.5382 13.0741L18.4091 15.945L19.6341 17.17L19.9215 17.4574ZM18.5673 14.0445C18.648 14.3321 18.648 14.6364 18.5673 14.924L18.2673 14.6282L17.5215 13.8823L17.409 13.7698L17.334 13.6948L17.2215 13.5823L17.2006 13.5614L17.184 13.5448L16.6965 13.0573L16.6798 13.0406L16.5798 12.9406L16.559 12.9156C17.4253 12.6727 18.3245 13.1782 18.5673 14.0445ZM24.0466 7.44057C23.8823 7.60165 23.6192 7.60165 23.4549 7.44057L23.2008 7.19056C23.1875 7.16961 23.1706 7.15125 23.1508 7.13641L17.8673 1.85296C17.8513 1.83421 17.8331 1.81741 17.8132 1.80296L17.5632 1.5488C17.3998 1.38674 17.3987 1.12291 17.5607 0.959531C17.6395 0.880037 17.7471 0.835651 17.859 0.836286C17.9686 0.835212 18.0739 0.878865 18.1506 0.957138L24.0466 6.8489C24.2077 7.01321 24.2077 7.27621 24.0466 7.44057Z" fill="#333333"/>
</g>
<defs>
<clipPath id="clip0">
<rect width="25" height="25" fill="white"/>
</clipPath>
</defs>
</svg>
