<svg width="18" height="17" viewBox="0 0 18 17" fill="none" xmlns="http://www.w3.org/2000/svg">
<path d="M9.71184 10.6978L7.63364 8.64411L7.65819 8.61957C9.08182 7.03228 10.0964 5.20774 10.6937 3.27682H13.0909V1.63638H7.36364V0H5.72726V1.63638H0V3.26455H9.13908C8.58681 4.84363 7.72362 6.3409 6.54543 7.65002C5.78452 6.8032 5.15451 5.88274 4.65543 4.90909H3.01909C3.61635 6.24272 4.43456 7.50275 5.45726 8.64001L1.29681 12.7514L2.45455 13.9091L6.54547 9.81819L9.09003 12.3627L9.71184 10.6978Z" fill="black"/>
<path d="M14.3182 6.54549H12.6818L9 16.3637H10.6364L11.5568 13.9091H15.4432L16.3636 16.3637H18L14.3182 6.54549ZM12.1705 12.2728L13.5 8.72593L14.8296 12.2728H12.1705Z" fill="black"/>
</svg>
