<svg width="21" height="23" viewBox="0 0 21 23" fill="none" xmlns="http://www.w3.org/2000/svg">
<path d="M2.33333 23H18.6667C19.9535 23 21 21.9685 21 20.7V10.3501C21.0002 10.1991 20.97 10.0495 20.9114 9.90999C20.8527 9.77046 20.7667 9.64373 20.6582 9.53709L11.3248 0.337178C11.2166 0.230291 11.088 0.145494 10.9465 0.0876369C10.8049 0.0297802 10.6532 0 10.5 0C10.3468 0 10.1951 0.0297802 10.0535 0.0876369C9.91199 0.145494 9.78342 0.230291 9.67517 0.337178L0.341834 9.53709C0.233336 9.64373 0.147284 9.77046 0.0886219 9.90999C0.0299594 10.0495 -0.000157664 10.1991 6.20686e-07 10.3501V20.7C6.20686e-07 21.9685 1.0465 23 2.33333 23ZM8.16667 20.7V14.9501H12.8333V20.7H8.16667ZM2.33333 10.8262L10.5 2.7763L18.6667 10.8262L18.6678 20.7H15.1667V14.9501C15.1667 13.6816 14.1202 12.6501 12.8333 12.6501H8.16667C6.87983 12.6501 5.83333 13.6816 5.83333 14.9501V20.7H2.33333V10.8262Z" fill="black"/>
</svg>
